<svg version="1.1" id="Layer_1" xmlns="http://www.w3.org/2000/svg" xmlns:xlink="http://www.w3.org/1999/xlink" x="0px" y="0px"
	 width="100%" viewBox="0 0 323 178" enable-background="new 0 0 323 178" xml:space="preserve">
<path fill="#F8F7F4" opacity="1.000000" stroke="none" 
	d="
M209.000000,179.000000 
	C139.333344,179.000000 70.166687,179.000000 1.000019,179.000000 
	C1.000012,119.666679 1.000012,60.333363 1.000006,1.000035 
	C108.666634,1.000023 216.333267,1.000023 323.999939,1.000011 
	C323.999939,60.333298 323.999939,119.666595 323.999969,178.999939 
	C285.833344,179.000000 247.666672,179.000000 209.000000,179.000000 
M77.697212,91.500076 
	C77.697212,62.589947 77.697212,33.679817 77.697212,4.717295 
	C52.351463,4.717295 27.792650,4.717295 3.293120,4.717295 
	C3.293120,62.306675 3.293120,119.539612 3.293120,176.710907 
	C28.181431,176.710907 52.746078,176.710907 77.697083,176.710907 
	C77.697083,148.423859 77.697083,120.461967 77.697212,91.500076 
M96.429901,27.107798 
	C95.251022,30.359871 93.102936,33.597038 93.052658,36.866467 
	C92.756004,56.158363 92.527077,75.471809 93.171341,94.748055 
	C93.447166,103.000786 98.145393,109.500526 106.451248,112.452606 
	C122.754616,118.247192 137.247818,109.350624 138.020645,92.132629 
	C138.803818,74.683937 138.455276,57.172401 138.202545,39.694176 
	C138.069366,30.482952 134.220886,22.816467 124.801582,20.186558 
	C114.648804,17.351860 104.597885,17.422609 96.429901,27.107798 
M157.330368,19.573971 
	C153.360779,19.573971 149.391174,19.573971 145.260117,19.573971 
	C145.260117,44.485886 145.005585,68.937454 145.412384,93.378029 
	C145.537399,100.888542 148.611115,107.718445 156.002258,111.445801 
	C172.188278,119.608406 188.588776,110.607376 190.195786,92.685257 
	C190.418610,90.200356 190.541748,87.697891 190.545227,85.203323 
	C190.573380,65.046234 190.567535,44.889084 190.551529,24.731966 
	C190.550262,23.132137 190.394714,21.532433 190.308411,19.885841 
	C184.111938,19.885841 178.360580,19.885841 172.250916,19.885841 
	C172.250916,21.996803 172.250977,23.804674 172.250900,25.612545 
	C172.250168,45.603088 172.264725,65.593658 172.229263,85.584137 
	C172.224838,88.074982 172.420624,90.724075 171.644150,92.999733 
	C171.132370,94.499672 169.157028,96.174835 167.623001,96.417267 
	C166.577591,96.582481 164.529129,94.622917 164.055542,93.230354 
	C163.274414,90.933479 163.191116,88.327461 163.183701,85.850632 
	C163.123383,65.693680 163.149063,45.536472 163.148590,25.379343 
	C163.148544,23.586714 163.148590,21.794085 163.148590,19.574217 
	C161.215302,19.574217 159.740982,19.574217 157.330368,19.573971 
M211.500702,19.615120 
	C206.056107,19.615120 200.611511,19.615120 195.024246,19.615120 
	C195.024246,25.823551 195.024246,31.524256 195.024246,37.786217 
	C198.782364,37.786217 202.176666,37.786217 205.879837,37.786217 
	C205.879837,63.086933 205.879837,87.821449 205.879837,112.757027 
	C212.114624,112.757027 218.018219,112.757027 224.434723,112.757027 
	C224.434723,87.671036 224.434723,62.819363 224.434723,37.726566 
	C228.323944,37.546314 231.722809,37.388786 235.150299,37.229935 
	C235.150299,31.185478 235.150299,25.624922 235.150299,19.615017 
	C227.397446,19.615017 219.949097,19.615017 211.500702,19.615120 
M150.473328,134.917831 
	C149.915771,138.853607 149.358215,142.789368 148.800659,146.725143 
	C148.495499,146.757996 148.190323,146.790848 147.885162,146.823700 
	C146.854630,139.914398 145.824112,133.005081 144.812317,126.221390 
	C140.429840,126.221390 136.515503,126.221390 132.488708,126.221390 
	C132.488708,139.906174 132.488708,153.292984 132.488708,166.710327 
	C135.013596,166.710327 137.252365,166.710327 139.949188,166.710327 
	C139.949188,159.123352 139.949188,151.824188 139.949188,144.525009 
	C140.243881,144.503525 140.538559,144.482025 140.833252,144.460526 
	C142.152176,151.898361 143.471085,159.336212 144.791565,166.782867 
	C147.400726,166.782867 149.675125,166.782867 152.092407,166.782867 
	C153.466461,158.639374 154.808029,150.688416 156.149597,142.737457 
	C156.477112,142.767456 156.804626,142.797440 157.132141,142.827438 
	C157.132141,150.835571 157.132141,158.843704 157.132141,166.774414 
	C159.703568,166.774414 161.807159,166.774414 164.113800,166.774414 
	C164.113800,153.159637 164.113800,139.779633 164.113800,126.162315 
	C159.967499,126.162315 156.040161,126.162315 151.773758,126.162315 
	C151.397095,128.833542 151.028961,131.444336 150.473328,134.917831 
M279.860809,131.643600 
	C279.860809,129.864136 279.860809,128.084686 279.860809,126.235291 
	C276.921356,126.235291 274.535431,126.235291 271.907959,126.235291 
	C271.907959,131.617599 271.907959,136.693802 271.907959,141.770004 
	C271.710938,141.796249 271.513916,141.822495 271.316895,141.848740 
	C270.188080,136.592224 269.059265,131.335724 267.970428,126.265442 
	C264.962921,126.265442 262.402405,126.265442 259.884918,126.265442 
	C259.884918,139.993210 259.884918,153.378296 259.884918,166.662567 
	C262.621765,166.662567 265.019257,166.662567 267.927429,166.662567 
	C267.927429,161.559128 267.927429,156.787262 267.927429,152.015396 
	C268.161469,152.016525 268.395477,152.017654 268.629517,152.018784 
	C269.683258,156.973831 270.737000,161.928879 271.757721,166.728668 
	C274.650421,166.728668 277.075897,166.728668 279.860809,166.728668 
	C279.860809,155.170715 279.860809,143.890045 279.860809,131.643600 
M186.999130,151.623276 
	C187.136536,151.423706 187.257141,151.206955 187.427032,151.040543 
	C187.457199,151.011017 187.795929,151.169495 187.818130,151.277084 
	C188.886871,156.454681 189.936432,161.636215 190.976746,166.761139 
	C193.799026,166.761139 196.226944,166.761139 198.757156,166.761139 
	C198.757156,153.104721 198.757156,139.689072 198.757156,126.237518 
	C196.111954,126.237518 193.721176,126.237518 190.955048,126.237518 
	C190.955048,131.560074 190.955048,136.588577 190.955048,141.617065 
	C190.766113,141.626282 190.577179,141.635498 190.388245,141.644714 
	C189.348465,136.486588 188.308670,131.328476 187.280655,126.228760 
	C184.326614,126.228760 181.748199,126.228760 179.178619,126.228760 
	C179.178619,139.930023 179.178619,153.335083 179.178619,166.668396 
	C181.885040,166.668396 184.282349,166.668396 186.937149,166.668396 
	C186.937149,161.693069 186.937149,157.047623 186.999130,151.623276 
M108.885155,142.501495 
	C108.885155,150.583328 108.885155,158.665146 108.885155,166.990540 
	C112.816254,166.990540 116.123535,167.055313 119.427391,166.976364 
	C125.370628,166.834351 128.552017,164.251862 128.826996,158.284958 
	C129.201889,150.149796 129.079285,141.979797 128.849075,133.833786 
	C128.735916,129.829742 126.643959,126.598404 122.367699,126.185417 
	C117.987389,125.762375 113.534431,126.091667 108.885139,126.091667 
	C108.885139,131.555191 108.885139,136.528992 108.885155,142.501495 
M87.568283,135.009888 
	C86.557526,145.522003 85.546768,156.034119 84.520317,166.709473 
	C87.444176,166.709473 89.830925,166.709473 92.391861,166.709473 
	C92.675392,164.516769 92.924194,162.592697 93.186005,160.567947 
	C94.843773,160.567947 96.236565,160.567947 97.756760,160.567947 
	C98.027031,162.747284 98.266075,164.674789 98.516449,166.693695 
	C101.194374,166.693695 103.573860,166.693695 106.274185,166.693695 
	C104.968536,153.014572 103.695602,139.678131 102.420586,126.319885 
	C97.502876,126.319885 92.981110,126.319885 88.345497,126.319885 
	C88.108582,129.168030 87.903252,131.636459 87.568283,135.009888 
M257.034485,164.441284 
	C255.816696,151.649460 254.598892,138.857635 253.404633,126.313110 
	C248.248688,126.313110 243.860382,126.313110 239.353165,126.313110 
	C238.063187,139.982346 236.808319,153.279465 235.543121,166.686188 
	C238.491623,166.686188 240.874451,166.686188 243.395828,166.686188 
	C243.680389,164.467651 243.926956,162.545349 244.178223,160.586365 
	C245.886902,160.586365 247.279434,160.586365 248.707550,160.586365 
	C249.022079,162.795364 249.295776,164.717575 249.721771,167.709396 
	C252.397934,166.857056 254.738159,166.111694 257.034485,164.441284 
M213.877533,131.581390 
	C213.877533,143.336868 213.877533,155.092361 213.877533,166.639252 
	C216.985367,166.639252 219.387680,166.639252 221.953690,166.639252 
	C221.953690,163.790710 221.953690,161.302658 221.953690,158.814606 
	C221.953690,156.211517 221.953690,153.608414 221.953690,151.061462 
	C231.855103,150.286026 234.710297,146.568253 233.813782,136.339249 
	C232.972137,126.736214 229.168991,124.764824 214.071915,126.322876 
	C214.008850,127.710716 213.943207,129.155350 213.877533,131.581390 
M287.560425,125.930588 
	C286.291840,126.037842 285.023224,126.145096 283.765503,126.251434 
	C283.765503,139.913223 283.765503,153.196960 283.765503,166.741959 
	C289.330322,166.741959 294.734192,166.741959 300.360962,166.741959 
	C300.360962,164.154831 300.360962,161.756668 300.360962,159.179749 
	C297.507080,159.055099 294.918060,158.942017 292.274841,158.826569 
	C292.274841,155.627838 292.274841,152.736572 292.274841,149.864197 
	C294.856628,149.683609 297.135803,149.524200 299.529480,149.356766 
	C299.529480,146.777664 299.529480,144.537811 299.529480,142.095642 
	C296.882721,141.934296 294.491913,141.788544 292.197449,141.648666 
	C292.197449,138.855164 292.197449,136.573883 292.197449,133.851959 
	C294.812958,133.851959 297.230286,133.851959 299.731720,133.851959 
	C299.731720,131.001785 299.731720,128.610825 299.731720,125.930443 
	C295.813019,125.930443 292.177124,125.930443 287.560425,125.930588 
M311.654175,136.536316 
	C311.654175,133.095261 311.654175,129.654205 311.654175,126.301987 
	C308.513153,126.301987 305.966217,126.301987 303.524048,126.301987 
	C303.524048,140.061188 303.524048,153.420776 303.524048,166.804108 
	C309.124084,166.804108 314.379700,166.804108 319.813293,166.804108 
	C319.813293,164.516312 319.813293,162.453033 319.813293,159.887741 
	C317.046417,159.887741 314.484497,159.887741 311.654053,159.887741 
	C311.654053,152.100250 311.654053,144.813690 311.654175,136.536316 
M167.739456,149.498978 
	C167.739456,155.240479 167.739456,160.981979 167.739456,166.651764 
	C170.729172,166.651764 173.098419,166.651764 175.426056,166.651764 
	C175.426056,152.923660 175.426056,139.562836 175.426056,126.273743 
	C172.710312,126.273743 170.315231,126.273743 167.739410,126.273743 
	C167.739410,133.919907 167.739410,141.209717 167.739456,149.498978 
z"/>
<path fill="#3D5B4C" opacity="1.000000" stroke="none" 
	d="
M77.697144,92.000076 
	C77.697083,120.461967 77.697083,148.423859 77.697083,176.710907 
	C52.746078,176.710907 28.181431,176.710907 3.293120,176.710907 
	C3.293120,119.539612 3.293120,62.306675 3.293120,4.717295 
	C27.792650,4.717295 52.351463,4.717295 77.697212,4.717295 
	C77.697212,33.679817 77.697212,62.589947 77.697144,92.000076 
M30.504398,128.050674 
	C30.704433,128.314545 30.904470,128.578430 31.104507,128.842300 
	C30.959871,128.903275 30.820591,128.989441 30.669806,129.021484 
	C27.584017,129.677429 24.509424,130.395248 21.407707,130.965302 
	C12.452113,132.611221 12.444464,132.587814 12.858994,141.768326 
	C12.871841,142.052841 13.114373,142.326965 13.286275,142.681015 
	C29.785448,142.681015 46.300838,142.681015 62.749352,142.681015 
	C62.749352,139.395264 62.749352,136.461502 62.749352,133.023178 
	C55.927235,133.023178 49.336468,133.023178 42.745697,133.023178 
	C42.739559,132.790451 42.733421,132.557709 42.727280,132.324982 
	C49.450207,130.921539 56.173130,129.518082 62.602898,128.175827 
	C62.602898,124.525467 62.602898,121.468353 62.602898,118.551270 
	C45.827484,118.551270 29.451139,118.551270 13.033033,118.551270 
	C13.033033,121.828621 13.033033,124.742691 13.033033,128.040314 
	C18.769987,128.040314 24.228214,128.040314 30.504398,128.050674 
M38.496483,49.004063 
	C33.337864,49.037132 28.169441,48.883099 23.023230,49.152843 
	C17.202608,49.457943 13.471128,52.279598 13.090321,57.098686 
	C12.663366,62.501759 12.992226,67.964554 12.992226,73.487823 
	C29.813211,73.487823 46.317284,73.487823 62.994823,73.487823 
	C62.994823,69.103210 63.035564,65.112930 62.986126,61.123768 
	C62.890869,53.437618 59.658695,49.786648 51.967087,49.153770 
	C47.832790,48.813591 43.652267,49.035202 38.496483,49.004063 
M57.711006,113.539284 
	C63.403042,110.459930 63.694233,105.211105 63.205418,99.699127 
	C62.821499,95.369911 60.270893,92.663406 56.253269,91.493179 
	C48.393990,89.203941 41.106705,89.809952 35.122440,96.212669 
	C32.736107,98.765862 30.400698,101.421013 27.693129,103.595146 
	C26.462461,104.583344 24.392944,104.584045 22.674803,104.824554 
	C22.491516,104.850204 21.777054,102.895996 21.874737,102.839569 
	C23.167564,102.092728 24.569008,101.536736 25.926247,100.896851 
	C26.334574,100.704346 26.690405,100.400497 26.870655,100.280525 
	C26.870655,97.071800 26.870655,94.112114 26.870655,91.175858 
	C17.232615,90.418297 12.240425,94.539749 12.166165,103.104767 
	C12.096637,111.124084 17.617760,115.971931 26.512079,114.808525 
	C29.739697,114.386345 32.965237,112.389496 35.732937,110.454811 
	C38.421494,108.575439 40.304661,105.561852 42.951180,103.598572 
	C44.984402,102.090256 47.580555,101.097282 50.073769,100.563179 
	C51.191227,100.323807 52.669289,101.767746 53.983711,102.447807 
	C52.824158,103.310211 51.766277,104.651115 50.481487,104.924103 
	C48.499634,105.345207 46.362389,105.035011 44.406967,105.035011 
	C44.406967,108.814484 44.406967,111.744164 44.406967,115.441093 
	C48.848698,114.884232 52.910732,114.374969 57.711006,113.539284 
M41.834007,30.592201 
	C41.834007,28.829155 41.834007,27.066109 41.834007,25.326689 
	C38.253990,25.326689 35.347557,25.326689 32.286251,25.326689 
	C32.149906,28.391857 32.027149,31.151476 31.897842,34.058388 
	C28.724449,34.058388 25.853237,34.058388 22.775305,34.058388 
	C22.607384,30.827610 22.456522,27.925097 22.302425,24.960327 
	C18.946836,24.960327 16.049456,24.960327 13.035982,24.960327 
	C13.035982,31.669716 13.035982,38.055676 13.035982,44.515221 
	C29.834507,44.515221 46.329319,44.515221 62.750465,44.515221 
	C62.750465,37.540821 62.750465,30.950872 62.750465,24.346191 
	C59.443733,24.346191 56.403687,24.346191 52.963348,24.346191 
	C52.963348,27.785299 52.963348,30.882885 52.963348,34.382431 
	C49.770309,34.382431 46.954178,34.610687 44.214859,34.252110 
	C43.319664,34.134933 42.624382,32.490509 41.834007,30.592201 
M32.500366,77.798149 
	C26.057919,77.798149 19.615471,77.798149 12.979042,77.798149 
	C12.979042,81.267120 12.979042,84.182739 12.979042,87.259125 
	C29.744390,87.259125 46.257961,87.259125 62.701973,87.259125 
	C62.701973,83.938538 62.701973,81.015205 62.701973,77.798088 
	C52.764374,77.798088 43.132278,77.798088 32.500366,77.798149 
M43.499489,156.868210 
	C49.911636,156.868210 56.323784,156.868210 62.776302,156.868210 
	C62.776302,153.291595 62.776302,150.368454 62.776302,147.297150 
	C46.052315,147.297150 29.553364,147.297150 13.002060,147.297150 
	C13.002060,150.510727 13.002060,153.430893 13.002060,156.868195 
	C23.000528,156.868195 32.750141,156.868195 43.499489,156.868210 
z"/>
<path fill="#343434" opacity="1.000000" stroke="none" 
	d="
M96.661179,26.817760 
	C104.597885,17.422609 114.648804,17.351860 124.801582,20.186558 
	C134.220886,22.816467 138.069366,30.482952 138.202545,39.694176 
	C138.455276,57.172401 138.803818,74.683937 138.020645,92.132629 
	C137.247818,109.350624 122.754616,118.247192 106.451248,112.452606 
	C98.145393,109.500526 93.447166,103.000786 93.171341,94.748055 
	C92.527077,75.471809 92.756004,56.158363 93.052658,36.866467 
	C93.102936,33.597038 95.251022,30.359871 96.661179,26.817760 
M110.943245,90.083160 
	C110.989723,90.747070 110.782898,91.619461 111.127419,92.038078 
	C112.474213,93.674492 113.995338,95.167427 115.451668,96.713692 
	C116.776718,95.069771 118.381187,93.569809 119.328476,91.731247 
	C119.958763,90.507935 119.745522,88.801392 119.748123,87.310852 
	C119.773071,72.994873 119.784950,58.678764 119.737282,44.362904 
	C119.731247,42.550476 119.737541,40.574505 119.039505,38.980186 
	C118.491867,37.729393 116.907066,36.230713 115.705376,36.159882 
	C114.428062,36.084587 112.460365,37.261791 111.873627,38.432903 
	C111.036644,40.103512 110.953255,42.265583 110.945076,44.219398 
	C110.882401,59.200981 110.915985,74.182968 110.943245,90.083160 
z"/>
<path fill="#343434" opacity="1.000000" stroke="none" 
	d="
M157.798523,19.574093 
	C159.740982,19.574217 161.215302,19.574217 163.148590,19.574217 
	C163.148590,21.794085 163.148544,23.586714 163.148590,25.379343 
	C163.149063,45.536472 163.123383,65.693680 163.183701,85.850632 
	C163.191116,88.327461 163.274414,90.933479 164.055542,93.230354 
	C164.529129,94.622917 166.577591,96.582481 167.623001,96.417267 
	C169.157028,96.174835 171.132370,94.499672 171.644150,92.999733 
	C172.420624,90.724075 172.224838,88.074982 172.229263,85.584137 
	C172.264725,65.593658 172.250168,45.603088 172.250900,25.612545 
	C172.250977,23.804674 172.250916,21.996803 172.250916,19.885841 
	C178.360580,19.885841 184.111938,19.885841 190.308411,19.885841 
	C190.394714,21.532433 190.550262,23.132137 190.551529,24.731966 
	C190.567535,44.889084 190.573380,65.046234 190.545227,85.203323 
	C190.541748,87.697891 190.418610,90.200356 190.195786,92.685257 
	C188.588776,110.607376 172.188278,119.608406 156.002258,111.445801 
	C148.611115,107.718445 145.537399,100.888542 145.412384,93.378029 
	C145.005585,68.937454 145.260117,44.485886 145.260117,19.573971 
	C149.391174,19.573971 153.360779,19.573971 157.798523,19.574093 
z"/>
<path fill="#313131" opacity="1.000000" stroke="none" 
	d="
M212.000717,19.615068 
	C219.949097,19.615017 227.397446,19.615017 235.150299,19.615017 
	C235.150299,25.624922 235.150299,31.185478 235.150299,37.229935 
	C231.722809,37.388786 228.323944,37.546314 224.434723,37.726566 
	C224.434723,62.819363 224.434723,87.671036 224.434723,112.757027 
	C218.018219,112.757027 212.114624,112.757027 205.879837,112.757027 
	C205.879837,87.821449 205.879837,63.086933 205.879837,37.786217 
	C202.176666,37.786217 198.782364,37.786217 195.024246,37.786217 
	C195.024246,31.524256 195.024246,25.823551 195.024246,19.615120 
	C200.611511,19.615120 206.056107,19.615120 212.000717,19.615068 
z"/>
<path fill="#363636" opacity="1.000000" stroke="none" 
	d="
M150.567078,134.486481 
	C151.028961,131.444336 151.397095,128.833542 151.773758,126.162315 
	C156.040161,126.162315 159.967499,126.162315 164.113800,126.162315 
	C164.113800,139.779633 164.113800,153.159637 164.113800,166.774414 
	C161.807159,166.774414 159.703568,166.774414 157.132141,166.774414 
	C157.132141,158.843704 157.132141,150.835571 157.132141,142.827438 
	C156.804626,142.797440 156.477112,142.767456 156.149597,142.737457 
	C154.808029,150.688416 153.466461,158.639374 152.092407,166.782867 
	C149.675125,166.782867 147.400726,166.782867 144.791565,166.782867 
	C143.471085,159.336212 142.152176,151.898361 140.833252,144.460526 
	C140.538559,144.482025 140.243881,144.503525 139.949188,144.525009 
	C139.949188,151.824188 139.949188,159.123352 139.949188,166.710327 
	C137.252365,166.710327 135.013596,166.710327 132.488708,166.710327 
	C132.488708,153.292984 132.488708,139.906174 132.488708,126.221390 
	C136.515503,126.221390 140.429840,126.221390 144.812317,126.221390 
	C145.824112,133.005081 146.854630,139.914398 147.885162,146.823700 
	C148.190323,146.790848 148.495499,146.757996 148.800659,146.725143 
	C149.358215,142.789368 149.915771,138.853607 150.567078,134.486481 
z"/>
<path fill="#363636" opacity="1.000000" stroke="none" 
	d="
M279.860809,132.126495 
	C279.860809,143.890045 279.860809,155.170715 279.860809,166.728668 
	C277.075897,166.728668 274.650421,166.728668 271.757721,166.728668 
	C270.737000,161.928879 269.683258,156.973831 268.629517,152.018784 
	C268.395477,152.017654 268.161469,152.016525 267.927429,152.015396 
	C267.927429,156.787262 267.927429,161.559128 267.927429,166.662567 
	C265.019257,166.662567 262.621765,166.662567 259.884918,166.662567 
	C259.884918,153.378296 259.884918,139.993210 259.884918,126.265442 
	C262.402405,126.265442 264.962921,126.265442 267.970428,126.265442 
	C269.059265,131.335724 270.188080,136.592224 271.316895,141.848740 
	C271.513916,141.822495 271.710938,141.796249 271.907959,141.770004 
	C271.907959,136.693802 271.907959,131.617599 271.907959,126.235291 
	C274.535431,126.235291 276.921356,126.235291 279.860809,126.235291 
	C279.860809,128.084686 279.860809,129.864136 279.860809,132.126495 
z"/>
<path fill="#333333" opacity="1.000000" stroke="none" 
	d="
M186.968140,152.012726 
	C186.937149,157.047623 186.937149,161.693069 186.937149,166.668396 
	C184.282349,166.668396 181.885040,166.668396 179.178619,166.668396 
	C179.178619,153.335083 179.178619,139.930023 179.178619,126.228760 
	C181.748199,126.228760 184.326614,126.228760 187.280655,126.228760 
	C188.308670,131.328476 189.348465,136.486588 190.388245,141.644714 
	C190.577179,141.635498 190.766113,141.626282 190.955048,141.617065 
	C190.955048,136.588577 190.955048,131.560074 190.955048,126.237518 
	C193.721176,126.237518 196.111954,126.237518 198.757156,126.237518 
	C198.757156,139.689072 198.757156,153.104721 198.757156,166.761139 
	C196.226944,166.761139 193.799026,166.761139 190.976746,166.761139 
	C189.936432,161.636215 188.886871,156.454681 187.818130,151.277084 
	C187.795929,151.169495 187.457199,151.011017 187.427032,151.040543 
	C187.257141,151.206955 187.136536,151.423706 186.968140,152.012726 
z"/>
<path fill="#313131" opacity="1.000000" stroke="none" 
	d="
M108.885147,142.002151 
	C108.885139,136.528992 108.885139,131.555191 108.885139,126.091667 
	C113.534431,126.091667 117.987389,125.762375 122.367699,126.185417 
	C126.643959,126.598404 128.735916,129.829742 128.849075,133.833786 
	C129.079285,141.979797 129.201889,150.149796 128.826996,158.284958 
	C128.552017,164.251862 125.370628,166.834351 119.427391,166.976364 
	C116.123535,167.055313 112.816254,166.990540 108.885155,166.990540 
	C108.885155,158.665146 108.885155,150.583328 108.885147,142.002151 
M120.915321,143.560867 
	C120.915298,133.963684 120.915298,133.963684 117.274864,133.309677 
	C117.274864,142.090729 117.274864,150.849915 117.274864,159.609100 
	C117.756516,159.818848 118.238167,160.028595 118.719818,160.238342 
	C119.450508,158.836853 120.698029,157.475830 120.811554,156.026016 
	C121.109772,152.217316 120.914177,148.369934 120.915321,143.560867 
z"/>
<path fill="#363635" opacity="1.000000" stroke="none" 
	d="
M87.633102,134.557388 
	C87.903252,131.636459 88.108582,129.168030 88.345497,126.319885 
	C92.981110,126.319885 97.502876,126.319885 102.420586,126.319885 
	C103.695602,139.678131 104.968536,153.014572 106.274185,166.693695 
	C103.573860,166.693695 101.194374,166.693695 98.516449,166.693695 
	C98.266075,164.674789 98.027031,162.747284 97.756760,160.567947 
	C96.236565,160.567947 94.843773,160.567947 93.186005,160.567947 
	C92.924194,162.592697 92.675392,164.516769 92.391861,166.709473 
	C89.830925,166.709473 87.444176,166.709473 84.520317,166.709473 
	C85.546768,156.034119 86.557526,145.522003 87.633102,134.557388 
M96.888702,147.648590 
	C96.521561,144.517548 96.154419,141.386505 95.787270,138.255478 
	C94.388023,142.328323 93.982445,146.383667 93.914177,150.444687 
	C93.895081,151.580963 94.870239,152.733917 95.389297,153.879227 
	C95.940834,152.768433 96.590340,151.692444 97.002487,150.532150 
	C97.207932,149.953766 96.978859,149.221024 96.888702,147.648590 
z"/>
<path fill="#353535" opacity="1.000000" stroke="none" 
	d="
M257.056458,164.903809 
	C254.738159,166.111694 252.397934,166.857056 249.721771,167.709396 
	C249.295776,164.717575 249.022079,162.795364 248.707550,160.586365 
	C247.279434,160.586365 245.886902,160.586365 244.178223,160.586365 
	C243.926956,162.545349 243.680389,164.467651 243.395828,166.686188 
	C240.874451,166.686188 238.491623,166.686188 235.543121,166.686188 
	C236.808319,153.279465 238.063187,139.982346 239.353165,126.313110 
	C243.860382,126.313110 248.248688,126.313110 253.404633,126.313110 
	C254.598892,138.857635 255.816696,151.649460 257.056458,164.903809 
M245.506897,153.792572 
	C246.360825,152.841843 247.961472,151.874466 247.940704,150.943237 
	C247.845566,146.675110 247.296631,142.417099 246.910629,138.155457 
	C246.475708,138.136215 246.040802,138.116974 245.605881,138.097733 
	C245.363113,143.100174 245.120346,148.102600 245.506897,153.792572 
z"/>
<path fill="#333333" opacity="1.000000" stroke="none" 
	d="
M213.877533,131.090683 
	C213.943207,129.155350 214.008850,127.710716 214.071915,126.322876 
	C229.168991,124.764824 232.972137,126.736214 233.813782,136.339249 
	C234.710297,146.568253 231.855103,150.286026 221.953690,151.061462 
	C221.953690,153.608414 221.953690,156.211517 221.953690,158.814606 
	C221.953690,161.302658 221.953690,163.790710 221.953690,166.639252 
	C219.387680,166.639252 216.985367,166.639252 213.877533,166.639252 
	C213.877533,155.092361 213.877533,143.336868 213.877533,131.090683 
M223.132263,143.114426 
	C223.982330,140.945755 225.220642,138.827576 225.512115,136.586258 
	C225.649582,135.529266 223.970184,134.236008 223.114044,133.049789 
	C222.682617,133.267334 222.251175,133.484879 221.819748,133.702423 
	C221.976181,136.767273 222.132614,139.832108 223.132263,143.114426 
z"/>
<path fill="#343434" opacity="1.000000" stroke="none" 
	d="
M288.050812,125.930511 
	C292.177124,125.930443 295.813019,125.930443 299.731720,125.930443 
	C299.731720,128.610825 299.731720,131.001785 299.731720,133.851959 
	C297.230286,133.851959 294.812958,133.851959 292.197449,133.851959 
	C292.197449,136.573883 292.197449,138.855164 292.197449,141.648666 
	C294.491913,141.788544 296.882721,141.934296 299.529480,142.095642 
	C299.529480,144.537811 299.529480,146.777664 299.529480,149.356766 
	C297.135803,149.524200 294.856628,149.683609 292.274841,149.864197 
	C292.274841,152.736572 292.274841,155.627838 292.274841,158.826569 
	C294.918060,158.942017 297.507080,159.055099 300.360962,159.179749 
	C300.360962,161.756668 300.360962,164.154831 300.360962,166.741959 
	C294.734192,166.741959 289.330322,166.741959 283.765503,166.741959 
	C283.765503,153.196960 283.765503,139.913223 283.765503,126.251434 
	C285.023224,126.145096 286.291840,126.037842 288.050812,125.930511 
z"/>
<path fill="#3D3D3D" opacity="1.000000" stroke="none" 
	d="
M311.654114,137.031723 
	C311.654053,144.813690 311.654053,152.100250 311.654053,159.887741 
	C314.484497,159.887741 317.046417,159.887741 319.813293,159.887741 
	C319.813293,162.453033 319.813293,164.516312 319.813293,166.804108 
	C314.379700,166.804108 309.124084,166.804108 303.524048,166.804108 
	C303.524048,153.420776 303.524048,140.061188 303.524048,126.301987 
	C305.966217,126.301987 308.513153,126.301987 311.654175,126.301987 
	C311.654175,129.654205 311.654175,133.095261 311.654114,137.031723 
z"/>
<path fill="#393939" opacity="1.000000" stroke="none" 
	d="
M167.739441,148.999237 
	C167.739410,141.209717 167.739410,133.919907 167.739410,126.273743 
	C170.315231,126.273743 172.710312,126.273743 175.426056,126.273743 
	C175.426056,139.562836 175.426056,152.923660 175.426056,166.651764 
	C173.098419,166.651764 170.729172,166.651764 167.739456,166.651764 
	C167.739456,160.981979 167.739456,155.240479 167.739441,148.999237 
z"/>
<path fill="#F6F5F2" opacity="1.000000" stroke="none" 
	d="
M30.095421,128.045502 
	C24.228214,128.040314 18.769987,128.040314 13.033033,128.040314 
	C13.033033,124.742691 13.033033,121.828621 13.033033,118.551270 
	C29.451139,118.551270 45.827484,118.551270 62.602898,118.551270 
	C62.602898,121.468353 62.602898,124.525467 62.602898,128.175827 
	C56.173130,129.518082 49.450207,130.921539 42.727280,132.324982 
	C42.733421,132.557709 42.739559,132.790451 42.745697,133.023178 
	C49.336468,133.023178 55.927235,133.023178 62.749352,133.023178 
	C62.749352,136.461502 62.749352,139.395264 62.749352,142.681015 
	C46.300838,142.681015 29.785448,142.681015 13.286275,142.681015 
	C13.114373,142.326965 12.871841,142.052841 12.858994,141.768326 
	C12.444464,132.587814 12.452113,132.611221 21.407707,130.965302 
	C24.509424,130.395248 27.584017,129.677429 30.669806,129.021484 
	C30.820591,128.989441 30.959871,128.903275 31.104507,128.842300 
	C30.904470,128.578430 30.704433,128.314545 30.095421,128.045502 
z"/>
<path fill="#F7F7F3" opacity="1.000000" stroke="none" 
	d="
M38.994545,49.003693 
	C43.652267,49.035202 47.832790,48.813591 51.967087,49.153770 
	C59.658695,49.786648 62.890869,53.437618 62.986126,61.123768 
	C63.035564,65.112930 62.994823,69.103210 62.994823,73.487823 
	C46.317284,73.487823 29.813211,73.487823 12.992226,73.487823 
	C12.992226,67.964554 12.663366,62.501759 13.090321,57.098686 
	C13.471128,52.279598 17.202608,49.457943 23.023230,49.152843 
	C28.169441,48.883099 33.337864,49.037132 38.994545,49.003693 
M33.538025,59.050034 
	C30.722334,59.057674 27.846663,58.726006 25.114983,59.208893 
	C23.637505,59.470078 22.405857,61.121899 21.063309,62.146374 
	C21.339539,62.568317 21.615767,62.990265 21.891994,63.412209 
	C32.521198,63.412209 43.150402,63.412209 53.774452,63.412209 
	C54.551464,59.749622 52.624168,59.046116 49.927959,59.050777 
	C44.793350,59.059654 39.658714,59.051266 33.538025,59.050034 
z"/>
<path fill="#F5F5F2" opacity="1.000000" stroke="none" 
	d="
M57.341885,113.702499 
	C52.910732,114.374969 48.848698,114.884232 44.406967,115.441093 
	C44.406967,111.744164 44.406967,108.814484 44.406967,105.035011 
	C46.362389,105.035011 48.499634,105.345207 50.481487,104.924103 
	C51.766277,104.651115 52.824158,103.310211 53.983711,102.447807 
	C52.669289,101.767746 51.191227,100.323807 50.073769,100.563179 
	C47.580555,101.097282 44.984402,102.090256 42.951180,103.598572 
	C40.304661,105.561852 38.421494,108.575439 35.732937,110.454811 
	C32.965237,112.389496 29.739697,114.386345 26.512079,114.808525 
	C17.617760,115.971931 12.096637,111.124084 12.166165,103.104767 
	C12.240425,94.539749 17.232615,90.418297 26.870655,91.175858 
	C26.870655,94.112114 26.870655,97.071800 26.870655,100.280525 
	C26.690405,100.400497 26.334574,100.704346 25.926247,100.896851 
	C24.569008,101.536736 23.167564,102.092728 21.874737,102.839569 
	C21.777054,102.895996 22.491516,104.850204 22.674803,104.824554 
	C24.392944,104.584045 26.462461,104.583344 27.693129,103.595146 
	C30.400698,101.421013 32.736107,98.765862 35.122440,96.212669 
	C41.106705,89.809952 48.393990,89.203941 56.253269,91.493179 
	C60.270893,92.663406 62.821499,95.369911 63.205418,99.699127 
	C63.694233,105.211105 63.403042,110.459930 57.341885,113.702499 
z"/>
<path fill="#F3F3F0" opacity="1.000000" stroke="none" 
	d="
M41.835838,31.068375 
	C42.624382,32.490509 43.319664,34.134933 44.214859,34.252110 
	C46.954178,34.610687 49.770309,34.382431 52.963348,34.382431 
	C52.963348,30.882885 52.963348,27.785299 52.963348,24.346191 
	C56.403687,24.346191 59.443733,24.346191 62.750465,24.346191 
	C62.750465,30.950872 62.750465,37.540821 62.750465,44.515221 
	C46.329319,44.515221 29.834507,44.515221 13.035982,44.515221 
	C13.035982,38.055676 13.035982,31.669716 13.035982,24.960327 
	C16.049456,24.960327 18.946836,24.960327 22.302425,24.960327 
	C22.456522,27.925097 22.607384,30.827610 22.775305,34.058388 
	C25.853237,34.058388 28.724449,34.058388 31.897842,34.058388 
	C32.027149,31.151476 32.149906,28.391857 32.286251,25.326689 
	C35.347557,25.326689 38.253990,25.326689 41.834007,25.326689 
	C41.834007,27.066109 41.834007,28.829155 41.835838,31.068375 
z"/>
<path fill="#F1F2EE" opacity="1.000000" stroke="none" 
	d="
M33.000275,77.798119 
	C43.132278,77.798088 52.764374,77.798088 62.701973,77.798088 
	C62.701973,81.015205 62.701973,83.938538 62.701973,87.259125 
	C46.257961,87.259125 29.744390,87.259125 12.979042,87.259125 
	C12.979042,84.182739 12.979042,81.267120 12.979042,77.798149 
	C19.615471,77.798149 26.057919,77.798149 33.000275,77.798119 
z"/>
<path fill="#F6F5F2" opacity="1.000000" stroke="none" 
	d="
M42.999619,156.868195 
	C32.750141,156.868195 23.000528,156.868195 13.002060,156.868195 
	C13.002060,153.430893 13.002060,150.510727 13.002060,147.297150 
	C29.553364,147.297150 46.052315,147.297150 62.776302,147.297150 
	C62.776302,150.368454 62.776302,153.291595 62.776302,156.868210 
	C56.323784,156.868210 49.911636,156.868210 42.999619,156.868195 
z"/>
<path fill="#F2F1EE" opacity="1.000000" stroke="none" 
	d="
M110.931458,89.623993 
	C110.915985,74.182968 110.882401,59.200981 110.945076,44.219398 
	C110.953255,42.265583 111.036644,40.103512 111.873627,38.432903 
	C112.460365,37.261791 114.428062,36.084587 115.705376,36.159882 
	C116.907066,36.230713 118.491867,37.729393 119.039505,38.980186 
	C119.737541,40.574505 119.731247,42.550476 119.737282,44.362904 
	C119.784950,58.678764 119.773071,72.994873 119.748123,87.310852 
	C119.745522,88.801392 119.958763,90.507935 119.328476,91.731247 
	C118.381187,93.569809 116.776718,95.069771 115.451668,96.713692 
	C113.995338,95.167427 112.474213,93.674492 111.127419,92.038078 
	C110.782898,91.619461 110.989723,90.747070 110.931458,89.623993 
z"/>
<path fill="#E7E6E3" opacity="1.000000" stroke="none" 
	d="
M120.915314,144.049408 
	C120.914177,148.369934 121.109772,152.217316 120.811554,156.026016 
	C120.698029,157.475830 119.450508,158.836853 118.719818,160.238342 
	C118.238167,160.028595 117.756516,159.818848 117.274864,159.609100 
	C117.274864,150.849915 117.274864,142.090729 117.274864,133.309677 
	C120.915298,133.963684 120.915298,133.963684 120.915314,144.049408 
z"/>
<path fill="#E4E3E1" opacity="1.000000" stroke="none" 
	d="
M96.917511,148.103348 
	C96.978859,149.221024 97.207932,149.953766 97.002487,150.532150 
	C96.590340,151.692444 95.940834,152.768433 95.389305,153.879227 
	C94.870239,152.733917 93.895081,151.580963 93.914177,150.444687 
	C93.982445,146.383667 94.388023,142.328323 95.787270,138.255478 
	C96.154419,141.386505 96.521561,144.517548 96.917511,148.103348 
z"/>
<path fill="#E2E1DF" opacity="1.000000" stroke="none" 
	d="
M245.192230,153.448807 
	C245.120346,148.102600 245.363113,143.100174 245.605881,138.097733 
	C246.040802,138.116974 246.475708,138.136215 246.910629,138.155457 
	C247.296631,142.417099 247.845566,146.675110 247.940704,150.943237 
	C247.961472,151.874466 246.360825,152.841843 245.192230,153.448807 
z"/>
<path fill="#E8E7E4" opacity="1.000000" stroke="none" 
	d="
M222.710663,143.005692 
	C222.132614,139.832108 221.976181,136.767273 221.819748,133.702423 
	C222.251175,133.484879 222.682617,133.267334 223.114044,133.049789 
	C223.970184,134.236008 225.649582,135.529266 225.512115,136.586258 
	C225.220642,138.827576 223.982330,140.945755 222.710663,143.005692 
z"/>
<path fill="#516B5D" opacity="1.000000" stroke="none" 
	d="
M34.031059,59.050041 
	C39.658714,59.051266 44.793350,59.059654 49.927959,59.050777 
	C52.624168,59.046116 54.551464,59.749622 53.774452,63.412209 
	C43.150402,63.412209 32.521198,63.412209 21.891994,63.412209 
	C21.615767,62.990265 21.339539,62.568317 21.063309,62.146374 
	C22.405857,61.121899 23.637505,59.470078 25.114983,59.208893 
	C27.846663,58.726006 30.722334,59.057674 34.031059,59.050041 
z"/>
</svg>