<!DOCTYPE svg PUBLIC "-//W3C//DTD SVG 1.1//EN" "http://www.w3.org/Graphics/SVG/1.1/DTD/svg11.dtd">
<!-- Uploaded to: SVG Repo, www.svgrepo.com, Transformed by: SVG Repo Mixer Tools -->
<svg width="800px" height="800px" viewBox="0 0 1024 1024" class="icon" version="1.1" xmlns="http://www.w3.org/2000/svg" fill="#000000">
<g id="SVGRepo_bgCarrier" stroke-width="0"/>
<g id="SVGRepo_tracerCarrier" stroke-linecap="round" stroke-linejoin="round"/>
<g id="SVGRepo_iconCarrier">
<path d="M269.6192 501.839644v228.238223h119.864889V501.851022a46.603378 46.603378 0 0 0-46.603378-46.603378h-26.646755a46.603378 46.603378 0 0 0-46.614756 46.592z" fill="#658682"/>
<path d="M772.573867 501.839644v425.7792h-383.089778V501.839644a46.603378 46.603378 0 0 0-46.592-46.614755h383.089778a46.614756 46.614756 0 0 1 46.592 46.614755z" fill="#658682"/>
<path d="M772.573867 501.839644v3.913956h-383.089778v-3.913956a46.603378 46.603378 0 0 0-46.592-46.614755h383.089778a46.614756 46.614756 0 0 1 46.592 46.614755z" fill="#658682"/>
<path d="M853.572267 377.480533L535.552 269.778489v-50.744889a14.449778 14.449778 0 0 0-14.461156-14.449778c-29.616356 0-53.703111-24.098133-53.703111-53.714489s24.098133-53.703111 53.703111-53.703111 53.714489 24.098133 53.714489 53.714489a14.449778 14.449778 0 0 0 28.910934 0C603.716267 105.324089 566.647467 68.266667 521.102222 68.266667s-82.602667 37.057422-82.602666 82.602666c0 40.618667 29.468444 74.490311 68.152888 81.339734v37.558044l-318.008888 107.702045a72.726756 72.726756 0 0 0-36.067556 26.715022 72.897422 72.897422 0 0 0-13.732978 42.723555 73.375289 73.375289 0 0 0 73.295645 73.295645h43.030755v209.851733a14.449778 14.449778 0 0 0 14.449778 14.461156h70.917689a14.449778 14.449778 0 1 0 0-28.910934h-56.467911V520.214756h90.965333V927.630222a14.449778 14.449778 0 0 0 14.449778 14.461156h52.815644a14.449778 14.449778 0 0 0 0-28.910934h-38.365866V501.839644a60.643556 60.643556 0 0 0-9.181867-32.1536h331.229867a32.199111 32.199111 0 0 1 32.1536 32.1536v157.445689a14.449778 14.449778 0 1 0 28.899555 0V520.214756h43.042134c19.592533 0 38.001778-7.623111 51.848533-21.458489a72.9088 72.9088 0 0 0 21.447111-51.848534 73.250133 73.250133 0 0 0-49.800533-69.4272zM373.225244 491.3152h-87.3472a32.176356 32.176356 0 0 1 30.344534-21.617778h26.646755a32.1536 32.1536 0 0 1 30.355911 21.617778z m488.2432-13.0048a44.145778 44.145778 0 0 1-31.402666 13.0048h-43.952356a61.166933 61.166933 0 0 0-60.131555-50.528711H316.222578a61.1328 61.1328 0 0 0-60.120178 50.528711h-43.963733a44.452978 44.452978 0 0 1-36.078934-70.291911 44.032 44.032 0 0 1 21.845334-16.156445l323.208533-109.454222 323.197156 109.4656a44.3392 44.3392 0 0 1 30.151111 42.052267 44.100267 44.100267 0 0 1-12.993423 31.379911zM772.573867 694.727111a14.449778 14.449778 0 0 0-14.449778 14.449778v204.003555H496.162133a14.449778 14.449778 0 1 0 0 28.910934h276.411734a14.449778 14.449778 0 0 0 14.461155-14.461156v-218.453333a14.449778 14.449778 0 0 0-14.461155-14.449778z" fill=""/>
</g>
</svg>